<svg width="44" height="44" viewBox="0 0 44 44" fill="none" xmlns="http://www.w3.org/2000/svg">
<path fill-rule="evenodd" clip-rule="evenodd" d="M17 43H21V41H17V43ZM1 19H3V15H1V19ZM1 27H3V23H1V27ZM1 35H3V31H1V35ZM9 9H13V7H9V9ZM9 43H13V41H9V43ZM1 9V11H3V9H5V7H3C1.9 7 1 7.9 1 9ZM27 41H25V43H27C28.1 43 29 42.1 29 41V39H27V41ZM3 39H1V41C1 42.1 1.9 43 3 43H5V41H3V39ZM39 33H19V5H30V12C30 13.1 30.9 14 32 14H39V33ZM33 7.2L36.8 11H33V7.2ZM32 2H18C16.9 2 16 2.9 16 4V34C16 35.1 16.9 36 18 36H40C41.1 36 42 35.1 42 34V12L32 2Z" fill="black"/>
<mask id="mask0" mask-type="alpha" maskUnits="userSpaceOnUse" x="1" y="2" width="41" height="41">
<path fill-rule="evenodd" clip-rule="evenodd" d="M17 43H21V41H17V43ZM1 19H3V15H1V19ZM1 27H3V23H1V27ZM1 35H3V31H1V35ZM9 9H13V7H9V9ZM9 43H13V41H9V43ZM1 9V11H3V9H5V7H3C1.9 7 1 7.9 1 9ZM27 41H25V43H27C28.1 43 29 42.1 29 41V39H27V41ZM3 39H1V41C1 42.1 1.9 43 3 43H5V41H3V39ZM39 33H19V5H30V12C30 13.1 30.9 14 32 14H39V33ZM33 7.2L36.8 11H33V7.2ZM32 2H18C16.9 2 16 2.9 16 4V34C16 35.1 16.9 36 18 36H40C41.1 36 42 35.1 42 34V12L32 2Z" fill="white"/>
</mask>
<g mask="url(#mask0)">
<rect width="44" height="44" fill="#2B94E1"/>
</g>
</svg>
