<svg width="166" height="17" viewBox="0 0 166 17" fill="none" xmlns="http://www.w3.org/2000/svg">
<path d="M114.347 3.2605H99.6257L95.8383 13.6677H98.7036L101.569 5.76349H105.159C105.554 5.76349 105.751 6.09283 105.62 6.48804L103.018 13.6677H105.883L108.485 6.48804C108.617 6.09283 109.078 5.76349 109.473 5.76349H112.338C112.734 5.76349 112.931 6.09283 112.799 6.48804L110.198 13.6677H113.063L116.06 5.40122C116.488 4.24852 115.731 3.2605 114.347 3.2605Z" fill="white"/>
<path d="M134.371 10.473C134.24 10.8683 133.778 11.1976 133.383 11.1976H129.793C129.398 11.1976 129.201 10.8683 129.332 10.473L131.934 3.29341H129.069L126.072 11.5269C125.644 12.7126 126.401 13.6677 127.817 13.6677H134.272C135.261 13.6677 136.314 13.009 136.578 12.2186L139.838 3.22754H136.973L134.371 10.473Z" fill="white"/>
<path fill-rule="evenodd" clip-rule="evenodd" d="M86.8144 9.74855L86.5509 10.4731C86.4191 10.8683 86.6168 11.1647 87.0449 11.1647H94.9491L94.0269 13.6677H85.0359C83.6197 13.6677 82.8623 12.7126 83.2904 11.527L85.7934 4.74256C86.0569 3.95214 87.1108 3.29346 88.0988 3.29346H95.2784C96.6946 3.29346 97.4521 4.24855 97.0239 5.43418L96.3653 7.24555L95.4431 9.74855H86.8144ZM88.988 5.79645C88.5928 5.79645 88.1317 6.12579 88 6.521L87.7365 7.24555H93.5L93.7635 6.521C93.8952 6.12579 93.6976 5.79645 93.3024 5.79645H88.988Z" fill="white"/>
<path d="M162.135 3.2605L160.686 7.21259H155.647L157.096 3.2605H154.231L150.443 13.7006H153.308L154.725 9.74852H159.763L158.347 13.7006H161.213L165 3.2605H162.135Z" fill="white"/>
<path d="M118.135 4.70959L114.874 13.7006H117.74L120.341 6.52097C120.473 6.12576 120.934 5.79641 121.329 5.79641H126.368L127.29 3.29342H120.473C119.452 3.26049 118.398 3.91917 118.135 4.70959Z" fill="white"/>
<path d="M73.2126 4.7096L72.1587 7.57487C71.7305 8.7605 72.488 9.71559 73.9042 9.71559H78.5808C78.976 9.71559 79.1736 10.0449 79.0419 10.4401C78.9102 10.8353 78.4491 11.1647 78.0539 11.1647H70.8742L69.9521 13.6677H78.9431C79.9311 13.6677 80.985 13.009 81.2485 12.2186L82.3024 9.35331C82.7305 8.16768 81.973 7.21259 80.5569 7.21259H75.8802C75.485 7.21259 75.2874 6.88325 75.4192 6.48804C75.5509 6.09283 76.012 5.76349 76.4072 5.76349H83.5868L84.509 3.2605H75.518C74.5299 3.2605 73.509 3.91918 73.2126 4.7096Z" fill="white"/>
<path d="M141.123 4.7096L140.069 7.57487C139.641 8.7605 140.398 9.71559 141.814 9.71559H146.491C146.886 9.71559 147.084 10.0449 146.952 10.4401C146.82 10.8353 146.359 11.1647 145.964 11.1647H138.784L137.862 13.6677H146.853C147.841 13.6677 148.895 13.009 149.159 12.2186L150.213 9.35331C150.641 8.16768 149.883 7.21259 148.467 7.21259H143.79C143.395 7.21259 143.198 6.88325 143.329 6.48804C143.461 6.09283 143.922 5.76349 144.317 5.76349H151.497L152.419 3.2605H143.428C142.44 3.2605 141.419 3.91918 141.123 4.7096Z" fill="white"/>
<path fill-rule="evenodd" clip-rule="evenodd" d="M52.991 0.559874C56.5479 -0.0988083 59.3473 0.625743 61.3892 2.76646C62.97 4.38023 63.7934 6.32335 63.8263 8.5958C63.8593 11 62.8712 13.0748 60.7635 14.8204C58.3922 16.7635 55.6587 17.1587 52.5299 16.006C49.5988 14.9192 46.9311 14.0958 43.0778 14.0958C39.2245 14.0958 35.2395 14.6886 35.2395 14.6886C36.018 14.0255 38.2605 13.1604 39.8235 12.5574C40.0458 12.4717 40.2544 12.3912 40.4431 12.3174C40.5529 12.2789 40.6636 12.2405 40.7743 12.2021C41.3278 12.01 41.8812 11.8179 42.3203 11.6257C42.979 11.3293 43.4072 11.0659 43.1437 10.7365C42.7155 10.1437 40.5748 10.7036 39.982 10.8683C38.5988 11.2635 37.3144 11.6916 34.2515 12.976C31.6497 14.0958 28.3563 14.5569 25.2605 14.7216C22.1976 14.8204 19.5299 13.8323 18.1138 12.4162C18.4223 12.4906 18.7148 12.5632 18.995 12.6327C21.3165 13.2087 22.7909 13.5744 25.5239 13.0748C26.1167 12.976 28.2904 12.0868 27.9611 11.5599C27.8138 11.3285 27.4752 11.3927 26.8615 11.5089C25.5533 11.7567 22.9953 12.2413 18.3772 10.6048C18.0679 10.4923 17.7553 10.3652 17.4264 10.2314C15.444 9.42521 12.8717 8.37907 6.88321 8.85928C6.65884 8.87654 6.38321 8.90686 6.06862 8.94147C4.58231 9.10499 2.22624 9.36421 0.296387 8.79341C5.00597 6.9491 8.76046 6.02694 10.7365 5.66466C14.4581 4.94011 17.2904 5.36826 19.2006 6.09281C18.3772 4.70958 16.2365 3.58981 16.2365 3.58981C17.3563 3.75449 18.8054 4.08383 20.1227 4.77544C20.4791 4.96254 20.9391 5.28944 21.4995 5.68766C23.0107 6.76148 25.2517 8.35396 28.1587 9.12275C30.2335 9.68263 32.5718 10.0778 35.8323 9.7485C36.2482 9.70518 36.5752 9.67325 36.8468 9.64673C37.6078 9.57243 37.9348 9.54051 38.5658 9.41916C39.7185 9.18862 40.5748 8.36526 40.3443 7.70658C40.1138 7.0479 39.2575 6.71856 38.3024 6.9491C38.1103 6.99391 37.8473 7.0935 37.5169 7.21857C36.148 7.73686 33.6231 8.69281 30.2006 8.00299C28.0248 7.56447 26.4192 6.39177 24.8439 5.24128C23.3432 4.14524 21.8702 3.06936 19.9581 2.66766C22.9823 2.19723 25.1532 3.25052 27.1963 4.24182C28.1569 4.7079 29.0893 5.16028 30.0688 5.43413C32.2096 6.02694 35.6676 5.8952 37.5449 5.49999C38.3024 5.33532 38.6976 5.07185 37.9072 4.70958C37.1167 4.3473 32.473 3.68862 28.2575 3.52395C31.1557 2.10778 35.6018 3.02993 35.6018 3.02993C34.5808 2.00898 32.2754 1.51496 32.2754 1.51496C35.0748 1.21856 37.8742 1.25149 39.8832 2.43712C41.167 3.17071 41.7806 3.6809 42.3793 4.17872C42.6407 4.39609 42.8993 4.61109 43.2096 4.84131C43.2212 4.85038 43.2341 4.86052 43.2481 4.87157C43.5909 5.14131 44.62 5.95124 45.2844 4.90718C45.9102 3.95209 44.5269 3.35928 43.506 2.997C42.4191 2.60179 41.4641 1.91017 40.8383 0.92215C41.1036 0.982787 41.3793 1.05563 41.6664 1.13146C42.6265 1.3851 43.7127 1.67206 44.9551 1.6467C48.7425 1.58083 52.991 0.559874 52.991 0.559874ZM49.3024 8.52993C49.3024 12.1527 52.2335 15.1168 55.8892 15.1168C59.5449 15.1168 62.476 12.1527 62.476 8.52993C62.476 4.90718 59.512 1.94311 55.8892 1.94311C52.2664 1.94311 49.3024 4.90718 49.3024 8.52993Z" fill="white"/>
<path fill-rule="evenodd" clip-rule="evenodd" d="M50.6856 8.52989C50.6856 5.66462 53.0239 3.32629 55.8892 3.32629C58.7874 3.32629 61.0928 5.63168 61.0928 8.52989C61.0928 11.3952 58.7545 13.7335 55.8892 13.7335C53.0239 13.7335 50.6856 11.3952 50.6856 8.52989ZM59.2485 9.28737C59.2485 10.3083 58.9191 11.2305 58.3263 11.988C59.3144 11.1646 59.973 9.94605 59.973 8.56282C59.973 6.4221 58.3922 4.64366 56.3503 4.28138C56.1197 4.51192 55.9221 4.74246 55.7245 5.00593C57.7335 5.40114 59.2485 7.17959 59.2485 9.28737Z" fill="white"/>
</svg>
